<svg xmlns="http://www.w3.org/2000/svg" viewBox="0 0 244.05 155.19"><path d="M503.31,266.45a4.25,4.25,0,0,0-3-2.15,30.84,30.84,0,0,0-7-.57c-.24,0-.36-.23-.36-.68s.12-.68.36-.68c2.35,0,4.2,0,5.58.12l8,.11,7.88-.11q2.06-.12,5.7-.12c.24,0,.36.23.36.68s-.12.68-.36.68a27.88,27.88,0,0,0-6.85.62,4.71,4.71,0,0,0-3.09,2.21,11,11,0,0,0-.85,5v25.37a12.11,12.11,0,0,0,.79,5.1,4.28,4.28,0,0,0,3,2.15,30.82,30.82,0,0,0,7,.56c.24,0,.36.23.36.68s-.12.68-.36.68c-2.35,0-4.21,0-5.58-.11l-8-.11L499,306c-1.37.08-3.27.11-5.7.11-.24,0-.36-.22-.36-.68s.12-.68.36-.68a27.39,27.39,0,0,0,6.85-.62,4.65,4.65,0,0,0,3.09-2.21,11,11,0,0,0,.85-5V271.55A12.11,12.11,0,0,0,503.31,266.45Z" transform="translate(-492.95 -249.31)" style="fill:#a67c52"/><path d="M564.65,296.41A15,15,0,0,1,568.83,307,20.93,20.93,0,0,1,565,318.5a38.74,38.74,0,0,1-11.57,10.87,62.94,62.94,0,0,1-19.16,7.87q-.48.12-.78-.51c-.21-.41-.15-.66.18-.74q14.79-4,21.21-11.78t6.42-16A16.33,16.33,0,0,0,558,298q-3.27-4.25-10.42-4.24a25.65,25.65,0,0,0-6.18.68c-.25.07-.45-.12-.61-.57s-.08-.72.24-.79q9.7-2.26,13.64-6.34t3.94-11q0-5.78-2.79-9.18t-8.61-3.4a12.91,12.91,0,0,0-9,3.29q-3.63,3.29-5.69,10.42a.73.73,0,0,1-.49.11c-.73,0-1.05-.15-1-.45L535.62,260a.7.7,0,0,1,.48-.22,1.62,1.62,0,0,1,.73.17c.24.11.32.21.24.28a6,6,0,0,0-.24,1.25c0,1.28.68,1.92,2.06,1.92a10.81,10.81,0,0,0,3.64-.9A45,45,0,0,1,547,261.3a20.78,20.78,0,0,1,4.24-.4q6.56,0,10.31,3.79a12.53,12.53,0,0,1,3.75,9.12,17.75,17.75,0,0,1-3.39,10.31,20.2,20.2,0,0,1-9.33,7.25Q560.47,291.94,564.65,296.41Z" transform="translate(-492.95 -249.31)" style="fill:#a67c52"/><path d="M640.94,385.25a22.25,22.25,0,0,1-8.79-8.44A23.61,23.61,0,0,1,629,364.64a22.56,22.56,0,0,1,3.15-11.9,21.84,21.84,0,0,1,8.79-8.15,27.25,27.25,0,0,1,12.79-2.94,25.46,25.46,0,0,1,12.48,3,21.85,21.85,0,0,1,8.55,8.32,24.87,24.87,0,0,1,0,24,21.77,21.77,0,0,1-8.61,8.33,25.83,25.83,0,0,1-12.54,3A26.12,26.12,0,0,1,640.94,385.25Zm25.7-3.85q3.93-5.55,3.94-15.06,0-11.32-5.22-17.33a16.48,16.48,0,0,0-13-6,14,14,0,0,0-11.93,5.78q-4.31,5.78-4.31,15a29.53,29.53,0,0,0,2.31,11.89A19.18,19.18,0,0,0,645,384a16.77,16.77,0,0,0,9.94,3Q662.7,387,666.64,381.4Z" transform="translate(-492.95 -249.31)" style="fill:#a67c52"/><path d="M727.85,353.54a24.1,24.1,0,0,1,6.54,6.34A14.85,14.85,0,0,1,737,368.6a16.24,16.24,0,0,1-3.45,10.08,23.12,23.12,0,0,1-9.22,7.08,30.89,30.89,0,0,1-12.66,2.55,28.09,28.09,0,0,1-12.25-2.55,20.37,20.37,0,0,1-8.24-6.79,15.7,15.7,0,0,1-2.91-9,19.77,19.77,0,0,1,5-12.91,36,36,0,0,1,12.06-9.4,29.28,29.28,0,0,1-7.75-5.61,9.74,9.74,0,0,1-2.67-6.85,10.11,10.11,0,0,1,2.91-7.31,18.43,18.43,0,0,1,7.27-4.53,26.25,26.25,0,0,1,8.73-1.53,18.32,18.32,0,0,1,8.18,1.76,14.48,14.48,0,0,1,5.52,4.47,9.65,9.65,0,0,1,1.93,5.67,11.88,11.88,0,0,1-3,7.36,30.75,30.75,0,0,1-8.55,7A82.66,82.66,0,0,1,727.85,353.54Zm-1.33,29q4.54-3.84,4.54-10.64a15.67,15.67,0,0,0-2.79-9.35,24.38,24.38,0,0,0-6.79-6.45,88.65,88.65,0,0,0-10.42-5.5l-4.24-2.15a22.71,22.71,0,0,0-8.73,7.87,19.7,19.7,0,0,0-3,10.71,18.78,18.78,0,0,0,2.55,9.45,19.36,19.36,0,0,0,7.15,7.2,19.89,19.89,0,0,0,10.3,2.71A17.1,17.1,0,0,0,726.52,382.53Zm-23.76-44.34a20.47,20.47,0,0,0,5.33,4.64,90.93,90.93,0,0,0,8.67,4.59,22.09,22.09,0,0,0,5-5.61,12.12,12.12,0,0,0,1.63-6.28,11.37,11.37,0,0,0-3.51-8.72,12.61,12.61,0,0,0-9-3.29,11.7,11.7,0,0,0-7.4,2.27,7.59,7.59,0,0,0-2.9,6.34A9.41,9.41,0,0,0,702.76,338.19Z" transform="translate(-492.95 -249.31)" style="fill:#a67c52"/><path d="M553.19,404.5c1.68-.61,110.18-154.09,109.72-155.19" transform="translate(-492.95 -249.31)" style="fill:#a67c52"/></svg>